<svg width="4" height="12" viewBox="0 0 4 12" fill="none" xmlns="http://www.w3.org/2000/svg">
<path d="M2 2.0625C1.85082 2.0625 1.70774 2.00324 1.60225 1.89775C1.49676 1.79226 1.4375 1.64918 1.4375 1.5C1.4375 1.35082 1.49676 1.20774 1.60225 1.10225C1.70774 0.996763 1.85082 0.9375 2 0.9375C2.14918 0.9375 2.29226 0.996763 2.39775 1.10225C2.50324 1.20774 2.5625 1.35082 2.5625 1.5C2.5625 1.64918 2.50324 1.79226 2.39775 1.89775C2.29226 2.00324 2.14918 2.0625 2 2.0625ZM2 6.5625C1.85082 6.5625 1.70774 6.50324 1.60225 6.39775C1.49676 6.29226 1.4375 6.14918 1.4375 6C1.4375 5.85082 1.49676 5.70774 1.60225 5.60225C1.70774 5.49676 1.85082 5.4375 2 5.4375C2.14918 5.4375 2.29226 5.49676 2.39775 5.60225C2.50324 5.70774 2.5625 5.85082 2.5625 6C2.5625 6.14918 2.50324 6.29226 2.39775 6.39775C2.29226 6.50324 2.14918 6.5625 2 6.5625ZM2 11.0625C1.85082 11.0625 1.70774 11.0032 1.60225 10.8977C1.49676 10.7923 1.4375 10.6492 1.4375 10.5C1.4375 10.3508 1.49676 10.2077 1.60225 10.1023C1.70774 9.99676 1.85082 9.9375 2 9.9375C2.14918 9.9375 2.29226 9.99676 2.39775 10.1023C2.50324 10.2077 2.5625 10.3508 2.5625 10.5C2.5625 10.6492 2.50324 10.7923 2.39775 10.8977C2.29226 11.0032 2.14918 11.0625 2 11.0625Z" stroke="#222222" stroke-width="1.5" stroke-linecap="round" stroke-linejoin="round"/>
</svg>
