<svg width="16" height="16" viewBox="0 0 16 16" fill="none" xmlns="http://www.w3.org/2000/svg">
<path d="M1.25 8.84375C1.25 8.378 1.628 8 2.09375 8H3.78125C4.247 8 4.625 8.378 4.625 8.84375V13.9062C4.625 14.372 4.247 14.75 3.78125 14.75H2.09375C1.86997 14.75 1.65536 14.6611 1.49713 14.5029C1.33889 14.3446 1.25 14.13 1.25 13.9062V8.84375ZM6.3125 5.46875C6.3125 5.003 6.6905 4.625 7.15625 4.625H8.84375C9.3095 4.625 9.6875 5.003 9.6875 5.46875V13.9062C9.6875 14.372 9.3095 14.75 8.84375 14.75H7.15625C6.93247 14.75 6.71786 14.6611 6.55963 14.5029C6.40139 14.3446 6.3125 14.13 6.3125 13.9062V5.46875ZM11.375 2.09375C11.375 1.628 11.753 1.25 12.2188 1.25H13.9062C14.372 1.25 14.75 1.628 14.75 2.09375V13.9062C14.75 14.372 14.372 14.75 13.9062 14.75H12.2188C11.995 14.75 11.7804 14.6611 11.6221 14.5029C11.4639 14.3446 11.375 14.13 11.375 13.9062V2.09375Z" stroke="#374151" stroke-width="1.5" stroke-linecap="round" stroke-linejoin="round"/>
</svg>
