<svg width="15" height="15" viewBox="0 0 15 15" fill="none" xmlns="http://www.w3.org/2000/svg">
<path d="M1.40625 1.875H2.2725C2.59125 1.875 2.86938 2.08938 2.95188 2.39688L3.19125 3.295M3.19125 3.295C6.6729 3.19743 10.1512 3.58447 13.5263 4.445C13.0113 5.97875 12.3994 7.46875 11.6988 8.90625H4.6875M3.19125 3.295L4.6875 8.90625M4.6875 8.90625C4.19022 8.90625 3.71331 9.10379 3.36167 9.45542C3.01004 9.80706 2.8125 10.284 2.8125 10.7812H12.6562M3.75 12.6562C3.75 12.7806 3.70061 12.8998 3.61271 12.9877C3.5248 13.0756 3.40557 13.125 3.28125 13.125C3.15693 13.125 3.0377 13.0756 2.94979 12.9877C2.86189 12.8998 2.8125 12.7806 2.8125 12.6562C2.8125 12.5319 2.86189 12.4127 2.94979 12.3248C3.0377 12.2369 3.15693 12.1875 3.28125 12.1875C3.40557 12.1875 3.5248 12.2369 3.61271 12.3248C3.70061 12.4127 3.75 12.5319 3.75 12.6562ZM11.7188 12.6562C11.7188 12.7806 11.6694 12.8998 11.5815 12.9877C11.4935 13.0756 11.3743 13.125 11.25 13.125C11.1257 13.125 11.0065 13.0756 10.9185 12.9877C10.8306 12.8998 10.7812 12.7806 10.7812 12.6562C10.7812 12.5319 10.8306 12.4127 10.9185 12.3248C11.0065 12.2369 11.1257 12.1875 11.25 12.1875C11.3743 12.1875 11.4935 12.2369 11.5815 12.3248C11.6694 12.4127 11.7188 12.5319 11.7188 12.6562Z" stroke="#009A68" stroke-width="1.2" stroke-linecap="round" stroke-linejoin="round"/>
</svg>
