<svg width="18" height="18" viewBox="0 0 18 18" fill="none" xmlns="http://www.w3.org/2000/svg">
<g clip-path="url(#clip0_1306_841)">
<path d="M13.5 6.75694C11.0183 6.75694 9 9.28069 9 12.3827C9 15.4847 11.0183 18.0077 13.5 18.0077C15.9818 18.0077 18 15.4847 18 12.3827C18 9.28069 15.9818 6.75694 13.5 6.75694ZM10.5 12.3827C10.5 10.3127 11.6138 8.59444 13.0605 8.30119C13.3455 8.72944 13.9868 10.0427 12.8528 12.0077C11.8763 13.7012 11.886 15.0902 12.1478 16.0644C11.1705 15.3834 10.4993 13.9884 10.4993 12.3827H10.5ZM13.944 16.4627C13.659 16.0337 13.02 14.7219 14.1525 12.7577C15.1283 11.0664 15.1193 9.67894 14.8583 8.70469C15.8318 9.38719 16.5 10.7799 16.5 12.3827C16.5 14.4497 15.3885 16.1664 13.944 16.4627ZM9.38025 1.11994C8.48775 0.22744 7.20675 -0.15056 5.78025 0.0526896C4.431 0.24544 3.09525 0.94369 2.01975 2.01994C-0.257247 4.29694 -0.661497 7.59919 1.11975 9.38044C1.854 10.1147 2.85 10.5017 3.9765 10.5017C4.21875 10.5017 4.467 10.4837 4.71975 10.4477C6.069 10.2549 7.40475 9.55669 8.48025 8.48044C10.7573 6.20344 11.1615 2.90119 9.38025 1.11994ZM3.081 3.08044C3.9285 2.23294 4.96275 1.68544 5.9925 1.53769C6.17175 1.51219 6.3465 1.49869 6.516 1.49869C7.06125 1.49869 7.55025 1.62994 7.94925 1.88269C7.78575 2.42494 7.17075 3.78994 5.00475 4.53994C3.09225 5.20294 2.08875 6.28594 1.56525 7.17544C1.284 5.93794 1.83075 4.32994 3.081 3.08044ZM7.41975 7.41919C6.57225 8.26669 5.538 8.81419 4.50825 8.96194C3.74925 9.06994 3.0735 8.94769 2.5515 8.61619C2.715 8.07319 3.33 6.70969 5.496 5.95894C7.4085 5.29594 8.412 4.21294 8.9355 3.32344C9.21675 4.56094 8.67 6.16969 7.41975 7.41919Z" fill="#374151"/>
</g>
<defs>
<clipPath id="clip0_1306_841">
<rect width="18" height="18" fill="white"/>
</clipPath>
</defs>
</svg>
