<svg width="19" height="19" viewBox="0 0 19 19" fill="none" xmlns="http://www.w3.org/2000/svg">
<g clip-path="url(#clip0_596_2935)">
<path d="M15.52 13.4054C14.0442 15.6779 11.8651 17.1552 9.6486 17.6263C8.08552 17.9586 6.50409 17.7876 5.13714 17.045C5.09539 16.467 5.02698 12.7623 9.81503 10.0693C14.0201 7.70532 14.9576 4.57124 15.1396 2.88455C17.6484 5.30857 17.8842 9.76561 15.52 13.4054ZM9.16192 8.90766C13.9495 6.21545 13.881 2.51071 13.8398 1.93197C10.534 0.135353 5.97279 1.69579 3.45697 5.57155C1.09286 9.21197 1.32854 13.6683 3.83721 16.0917C4.01931 14.4057 4.95699 11.2723 9.16192 8.90766Z" fill="#A1792F"/>
</g>
<defs>
<clipPath id="clip0_596_2935">
<rect width="16" height="16" fill="white" transform="translate(0 3.32654) rotate(-12)"/>
</clipPath>
</defs>
</svg>
