<svg width="18" height="16" viewBox="0 0 18 16" fill="none" xmlns="http://www.w3.org/2000/svg">
<path d="M11.25 13.346C11.8897 13.5317 12.5526 13.6257 13.2188 13.625C14.2901 13.6265 15.3474 13.3823 16.3095 12.911C16.3379 12.2388 16.1465 11.5756 15.7641 11.022C15.3817 10.4684 14.8293 10.0545 14.1905 9.84313C13.5518 9.63174 12.8615 9.63434 12.2244 9.85055C11.5872 10.0668 11.0379 10.4848 10.6598 11.0413M11.25 13.346V13.3438C11.25 12.509 11.0355 11.7238 10.6598 11.0413M11.25 13.346V13.4255C9.80661 14.2948 8.15296 14.7528 6.468 14.75C4.71975 14.75 3.084 14.2662 1.6875 13.4255L1.68675 13.3438C1.68618 12.2821 2.03896 11.2504 2.68949 10.4114C3.34002 9.57245 4.25128 8.97382 5.27962 8.70995C6.30796 8.44607 7.39487 8.53196 8.369 8.95407C9.34313 9.37618 10.1491 10.1105 10.6598 11.0413M9 3.78125C9 4.45258 8.73332 5.09641 8.25862 5.57111C7.78392 6.04582 7.14008 6.3125 6.46875 6.3125C5.79742 6.3125 5.15359 6.04582 4.67889 5.57111C4.20419 5.09641 3.9375 4.45258 3.9375 3.78125C3.9375 3.10992 4.20419 2.46609 4.67889 1.99139C5.15359 1.51668 5.79742 1.25 6.46875 1.25C7.14008 1.25 7.78392 1.51668 8.25862 1.99139C8.73332 2.46609 9 3.10992 9 3.78125ZM15.1875 5.46875C15.1875 5.99089 14.9801 6.49165 14.6109 6.86087C14.2417 7.23008 13.7409 7.4375 13.2188 7.4375C12.6966 7.4375 12.1958 7.23008 11.8266 6.86087C11.4574 6.49165 11.25 5.99089 11.25 5.46875C11.25 4.94661 11.4574 4.44585 11.8266 4.07663C12.1958 3.70742 12.6966 3.5 13.2188 3.5C13.7409 3.5 14.2417 3.70742 14.6109 4.07663C14.9801 4.44585 15.1875 4.94661 15.1875 5.46875Z" stroke="#374151" stroke-width="1.5" stroke-linecap="round" stroke-linejoin="round"/>
</svg>
