<svg width="20" height="20" viewBox="0 0 20 20" fill="none" xmlns="http://www.w3.org/2000/svg">
<rect width="20" height="20" rx="10" fill="white"/>
<g clip-path="url(#clip0_592_2083)">
<path d="M10 5.90083C11.335 5.90083 11.4933 5.90583 12.0204 5.93C12.5654 5.955 13.1267 6.07917 13.5238 6.47625C13.9246 6.87708 14.045 7.43292 14.07 7.97958C14.0942 8.50667 14.0992 8.665 14.0992 10C14.0992 11.335 14.0942 11.4933 14.07 12.0204C14.0454 12.5625 13.9183 13.1292 13.5238 13.5238C13.1229 13.9246 12.5675 14.045 12.0204 14.07C11.4933 14.0942 11.335 14.0992 10 14.0992C8.665 14.0992 8.50667 14.0942 7.97958 14.07C7.44167 14.0454 6.8675 13.9154 6.47625 13.5238C6.0775 13.125 5.955 12.5638 5.93 12.0204C5.90583 11.4933 5.90083 11.335 5.90083 10C5.90083 8.665 5.90583 8.50667 5.93 7.97958C5.95458 7.43958 6.08292 6.86958 6.47625 6.47625C6.87625 6.07625 7.43417 5.955 7.97958 5.93C8.50667 5.90583 8.665 5.90083 10 5.90083ZM10 5C8.64208 5 8.47167 5.00583 7.93833 5.03C7.16542 5.06542 6.39792 5.28042 5.83917 5.83917C5.27833 6.4 5.06542 7.16583 5.03 7.93833C5.00583 8.47167 5 8.64208 5 10C5 11.3579 5.00583 11.5283 5.03 12.0617C5.06542 12.8337 5.28125 13.6033 5.83917 14.1608C6.39958 14.7212 7.16667 14.9346 7.93833 14.97C8.47167 14.9942 8.64208 15 10 15C11.3579 15 11.5283 14.9942 12.0617 14.97C12.8342 14.9346 13.6025 14.7192 14.1608 14.1608C14.7221 13.5996 14.9346 12.8342 14.97 12.0617C14.9942 11.5283 15 11.3579 15 10C15 8.64208 14.9942 8.47167 14.97 7.93833C14.9346 7.16542 14.7192 6.3975 14.1608 5.83917C13.6012 5.27958 12.8321 5.065 12.0617 5.03C11.5283 5.00583 11.3579 5 10 5Z" fill="#391716"/>
<path d="M10.0001 7.43262C8.5822 7.43262 7.43262 8.5822 7.43262 10.0001C7.43262 11.418 8.5822 12.5676 10.0001 12.5676C11.418 12.5676 12.5676 11.418 12.5676 10.0001C12.5676 8.5822 11.418 7.43262 10.0001 7.43262ZM10.0001 11.6668C9.0797 11.6668 8.33345 10.9205 8.33345 10.0001C8.33345 9.0797 9.0797 8.33345 10.0001 8.33345C10.9205 8.33345 11.6668 9.0797 11.6668 10.0001C11.6668 10.9205 10.9205 11.6668 10.0001 11.6668Z" fill="#391716"/>
<path d="M12.6693 7.93096C13.0007 7.93096 13.2693 7.66233 13.2693 7.33096C13.2693 6.99959 13.0007 6.73096 12.6693 6.73096C12.338 6.73096 12.0693 6.99959 12.0693 7.33096C12.0693 7.66233 12.338 7.93096 12.6693 7.93096Z" fill="#391716"/>
</g>
<defs>
<clipPath id="clip0_592_2083">
<rect width="10" height="10" fill="white" transform="translate(5 5)"/>
</clipPath>
</defs>
</svg>
