<svg width="12" height="13" viewBox="0 0 12 13" fill="none" xmlns="http://www.w3.org/2000/svg">
<path fill-rule="evenodd" clip-rule="evenodd" d="M5.77 12.1068L5.805 12.1285L5.819 12.1371C5.87452 12.1696 5.93664 12.1867 5.99975 12.1867C6.06286 12.1867 6.12498 12.1696 6.1805 12.1371L6.1945 12.129L6.23 12.1068C6.42556 11.9812 6.61638 11.8471 6.802 11.7049C7.28254 11.3373 7.73152 10.9236 8.1435 10.4688C9.1155 9.39087 10.125 7.77129 10.125 5.6875C10.125 4.50231 9.6904 3.36567 8.91682 2.52762C8.14323 1.68956 7.09402 1.21875 6 1.21875C4.90598 1.21875 3.85677 1.68956 3.08318 2.52762C2.3096 3.36567 1.875 4.50231 1.875 5.6875C1.875 7.77075 2.885 9.39087 3.8565 10.4688C4.26832 10.9236 4.71714 11.3373 5.1975 11.7049C5.38328 11.8471 5.57427 11.9812 5.77 12.1068ZM6 7.3125C6.39782 7.3125 6.77936 7.14129 7.06066 6.83655C7.34196 6.5318 7.5 6.11848 7.5 5.6875C7.5 5.25652 7.34196 4.8432 7.06066 4.53845C6.77936 4.2337 6.39782 4.0625 6 4.0625C5.60218 4.0625 5.22064 4.2337 4.93934 4.53845C4.65804 4.8432 4.5 5.25652 4.5 5.6875C4.5 6.11848 4.65804 6.5318 4.93934 6.83655C5.22064 7.14129 5.60218 7.3125 6 7.3125Z" fill="#A1792F"/>
</svg>
