<svg width="18" height="18" viewBox="0 0 18 18" fill="none" xmlns="http://www.w3.org/2000/svg">
<path d="M11.8125 11.25V14.0625C11.8125 14.5101 11.6347 14.9393 11.3182 15.2557C11.0018 15.5722 10.5726 15.75 10.125 15.75L5.625 15.75C5.17745 15.75 4.74823 15.5722 4.43176 15.2557C4.11529 14.9393 3.9375 14.5101 3.9375 14.0625L3.9375 3.9375C3.9375 3.48995 4.11529 3.06073 4.43176 2.74426C4.74823 2.42779 5.17745 2.25 5.625 2.25L10.125 2.25C10.5726 2.25 11.0018 2.42779 11.3182 2.74426C11.6347 3.06073 11.8125 3.48995 11.8125 3.9375L11.8125 6.75M14.0625 6.75L16.3125 9M16.3125 9L14.0625 11.25M16.3125 9H6.75" stroke="#374151" stroke-width="1.5" stroke-linecap="round" stroke-linejoin="round"/>
</svg>
