<svg width="15" height="16" viewBox="0 0 15 16" fill="none" xmlns="http://www.w3.org/2000/svg">
<path fill-rule="evenodd" clip-rule="evenodd" d="M1.40625 8C1.40625 4.63437 4.13437 1.90625 7.5 1.90625C10.8656 1.90625 13.5938 4.63437 13.5938 8C13.5938 11.3656 10.8656 14.0938 7.5 14.0938C4.13437 14.0938 1.40625 11.3656 1.40625 8ZM6.8475 7.09875C7.56375 6.74062 8.37063 7.38812 8.17625 8.165L7.73313 9.9375L7.75938 9.925C7.86951 9.87658 7.99405 9.87237 8.1072 9.91322C8.22036 9.95408 8.31348 10.0369 8.36728 10.1445C8.42109 10.2521 8.43146 10.3763 8.39625 10.4913C8.36103 10.6063 8.28294 10.7034 8.17812 10.7625L8.15312 10.7762C7.43625 11.1344 6.62937 10.4869 6.82375 9.71L7.2675 7.9375L7.24125 7.95C7.18596 7.98073 7.12502 7.99995 7.06211 8.0065C6.9992 8.01305 6.93561 8.00681 6.87517 7.98814C6.81474 7.96946 6.75871 7.93875 6.71045 7.89785C6.6622 7.85696 6.62273 7.80671 6.5944 7.75016C6.56608 7.6936 6.5495 7.63189 6.54566 7.56875C6.54182 7.50562 6.55079 7.44235 6.57204 7.38278C6.5933 7.3232 6.62639 7.26854 6.66932 7.22209C6.71226 7.17564 6.76415 7.13836 6.82188 7.1125L6.8475 7.09875ZM7.5 6.125C7.62432 6.125 7.74355 6.07561 7.83146 5.98771C7.91936 5.8998 7.96875 5.78057 7.96875 5.65625C7.96875 5.53193 7.91936 5.4127 7.83146 5.32479C7.74355 5.23689 7.62432 5.1875 7.5 5.1875C7.37568 5.1875 7.25645 5.23689 7.16854 5.32479C7.08064 5.4127 7.03125 5.53193 7.03125 5.65625C7.03125 5.78057 7.08064 5.8998 7.16854 5.98771C7.25645 6.07561 7.37568 6.125 7.5 6.125Z" fill="#585962"/>
</svg>
