<svg width="14" height="18" viewBox="0 0 14 18" fill="none" xmlns="http://www.w3.org/2000/svg">
<path d="M4.75 10.6877L9.25 6.18767M12.625 3.56792V16.3127L9.8125 15.1877L7 16.3127L4.1875 15.1877L1.375 16.3127V3.56792C1.375 2.73692 1.9795 2.02517 2.80525 1.92917C5.59239 1.60564 8.40761 1.60564 11.1948 1.92917C12.0198 2.02517 12.625 2.73692 12.625 3.56792ZM5.3125 6.75017H5.3185V6.75617H5.3125V6.75017ZM5.59375 6.75017C5.59375 6.82476 5.56412 6.8963 5.51137 6.94904C5.45863 7.00179 5.38709 7.03142 5.3125 7.03142C5.23791 7.03142 5.16637 7.00179 5.11363 6.94904C5.06088 6.8963 5.03125 6.82476 5.03125 6.75017C5.03125 6.67557 5.06088 6.60404 5.11363 6.55129C5.16637 6.49855 5.23791 6.46892 5.3125 6.46892C5.38709 6.46892 5.45863 6.49855 5.51137 6.55129C5.56412 6.60404 5.59375 6.67557 5.59375 6.75017ZM8.6875 10.1252H8.6935V10.1312H8.6875V10.1252ZM8.96875 10.1252C8.96875 10.1998 8.93912 10.2713 8.88637 10.324C8.83363 10.3768 8.76209 10.4064 8.6875 10.4064C8.61291 10.4064 8.54137 10.3768 8.48863 10.324C8.43588 10.2713 8.40625 10.1998 8.40625 10.1252C8.40625 10.0506 8.43588 9.97904 8.48863 9.92629C8.54137 9.87355 8.61291 9.84392 8.6875 9.84392C8.76209 9.84392 8.83363 9.87355 8.88637 9.92629C8.93912 9.97904 8.96875 10.0506 8.96875 10.1252Z" stroke="#374151" stroke-width="1.5" stroke-linecap="round" stroke-linejoin="round"/>
</svg>
