<svg width="100" height="100" viewBox="0 0 100 100" fill="none" xmlns="http://www.w3.org/2000/svg">
<path d="M74.5 81.5917V81.2649L74.7993 81.1337C81.9746 77.9894 87 70.8187 87 62.5V16.6667C87 11.7947 90.9614 7.83333 95.8333 7.83333C97.8575 7.83333 99.5 6.19437 99.5 4.16667C99.5 2.13897 97.8575 0.5 95.8333 0.5C86.9178 0.5 79.6667 7.75114 79.6667 16.6667V62.5C79.6667 69.6678 73.8345 75.5 66.6667 75.5H4.16666C2.14248 75.5 0.5 77.139 0.5 79.1667C0.5 81.1944 2.14248 82.8333 4.16666 82.8333H4.66666V83.3333V85.4167C4.66666 93.1822 10.9845 99.5 18.75 99.5C26.5155 99.5 32.8333 93.1822 32.8333 85.4167V83.3333V82.8333H33.3333H45.8333H46.3333V83.3333V85.4167C46.3333 93.1822 52.6511 99.5 60.4167 99.5C68.1822 99.5 74.5 93.1822 74.5 85.4167V81.5917ZM66.6667 82.8333H67.1667V83.3333V85.4167C67.1667 89.1386 64.1386 92.1667 60.4167 92.1667C56.6947 92.1667 53.6667 89.1386 53.6667 85.4167V83.3333V82.8333H54.1667H66.6667ZM25 82.8333H25.5V83.3333V85.4167C25.5 89.1386 22.472 92.1667 18.75 92.1667C15.028 92.1667 12 89.1386 12 85.4167V83.3333V82.8333H12.5H25Z" fill="#A1792F" stroke="#4C2B1F"/>
</svg>
