<svg width="15" height="11" viewBox="0 0 15 11" fill="none" xmlns="http://www.w3.org/2000/svg">
<path d="M13.5938 2.21875V8.78125C13.5938 9.15421 13.4456 9.5119 13.1819 9.77562C12.9181 10.0393 12.5605 10.1875 12.1875 10.1875H2.8125C2.43954 10.1875 2.08185 10.0393 1.81813 9.77562C1.55441 9.5119 1.40625 9.15421 1.40625 8.78125V2.21875M13.5938 2.21875C13.5938 1.84579 13.4456 1.4881 13.1819 1.22438C12.9181 0.960658 12.5605 0.8125 12.1875 0.8125H2.8125C2.43954 0.8125 2.08185 0.960658 1.81813 1.22438C1.55441 1.4881 1.40625 1.84579 1.40625 2.21875M13.5938 2.21875V2.37063C13.5938 2.61072 13.5323 2.84682 13.4153 3.05643C13.2982 3.26605 13.1294 3.44221 12.925 3.56813L8.2375 6.4525C8.01575 6.58908 7.76044 6.66141 7.5 6.66141C7.23956 6.66141 6.98425 6.58908 6.7625 6.4525L2.075 3.56875C1.87058 3.44284 1.70179 3.26668 1.58473 3.05706C1.46767 2.84744 1.40622 2.61134 1.40625 2.37125V2.21875" stroke="#007BFF" stroke-width="1.5" stroke-linecap="round" stroke-linejoin="round"/>
</svg>
