<svg width="18" height="18" viewBox="0 0 18 18" fill="none" xmlns="http://www.w3.org/2000/svg">
<path d="M6.46875 9C6.46875 9.07459 6.43912 9.14613 6.38637 9.19887C6.33363 9.25162 6.26209 9.28125 6.1875 9.28125C6.11291 9.28125 6.04137 9.25162 5.98863 9.19887C5.93588 9.14613 5.90625 9.07459 5.90625 9C5.90625 8.92541 5.93588 8.85387 5.98863 8.80113C6.04137 8.74838 6.11291 8.71875 6.1875 8.71875C6.26209 8.71875 6.33363 8.74838 6.38637 8.80113C6.43912 8.85387 6.46875 8.92541 6.46875 9ZM6.46875 9H6.1875M9.28125 9C9.28125 9.07459 9.25162 9.14613 9.19887 9.19887C9.14613 9.25162 9.07459 9.28125 9 9.28125C8.92541 9.28125 8.85387 9.25162 8.80113 9.19887C8.74838 9.14613 8.71875 9.07459 8.71875 9C8.71875 8.92541 8.74838 8.85387 8.80113 8.80113C8.85387 8.74838 8.92541 8.71875 9 8.71875C9.07459 8.71875 9.14613 8.74838 9.19887 8.80113C9.25162 8.85387 9.28125 8.92541 9.28125 9ZM9.28125 9H9M12.0938 9C12.0938 9.07459 12.0641 9.14613 12.0114 9.19887C11.9586 9.25162 11.8871 9.28125 11.8125 9.28125C11.7379 9.28125 11.6664 9.25162 11.6136 9.19887C11.5609 9.14613 11.5312 9.07459 11.5312 9C11.5312 8.92541 11.5609 8.85387 11.6136 8.80113C11.6664 8.74838 11.7379 8.71875 11.8125 8.71875C11.8871 8.71875 11.9586 8.74838 12.0114 8.80113C12.0641 8.85387 12.0938 8.92541 12.0938 9ZM12.0938 9H11.8125M15.75 9C15.75 12.417 12.7275 15.1875 9 15.1875C8.35289 15.1883 7.70853 15.1033 7.08375 14.9348C6.20307 15.5541 5.12874 15.8356 4.0575 15.7275C3.9384 15.716 3.8198 15.6997 3.702 15.6788C4.07165 15.2431 4.3241 14.7204 4.4355 14.16C4.503 13.8172 4.33575 13.4842 4.08525 13.2405C2.9475 12.1335 2.25 10.6417 2.25 9C2.25 5.583 5.2725 2.8125 9 2.8125C12.7275 2.8125 15.75 5.583 15.75 9Z" stroke="black" stroke-width="1.5" stroke-linecap="round" stroke-linejoin="round"/>
</svg>
