<svg width="13" height="13" viewBox="0 0 13 13" fill="none" xmlns="http://www.w3.org/2000/svg">
<path fill-rule="evenodd" clip-rule="evenodd" d="M4.87568 1.87695C5.59755 0.626953 7.40255 0.626953 8.1238 1.87695L12.7207 9.84445C13.4419 11.0945 12.5394 12.657 11.0963 12.657H1.90318C0.460051 12.657 -0.441824 11.0945 0.279426 9.84445L4.87505 1.87695H4.87568ZM6.50005 5.15633C6.62437 5.15633 6.7436 5.20571 6.83151 5.29362C6.91941 5.38153 6.9688 5.50076 6.9688 5.62508V7.96883C6.9688 8.09315 6.91941 8.21238 6.83151 8.30028C6.7436 8.38819 6.62437 8.43758 6.50005 8.43758C6.37573 8.43758 6.2565 8.38819 6.16859 8.30028C6.08069 8.21238 6.0313 8.09315 6.0313 7.96883V5.62508C6.0313 5.50076 6.08069 5.38153 6.16859 5.29362C6.2565 5.20571 6.37573 5.15633 6.50005 5.15633ZM6.50005 10.3126C6.62437 10.3126 6.7436 10.2632 6.83151 10.1753C6.91941 10.0874 6.9688 9.96815 6.9688 9.84383C6.9688 9.71951 6.91941 9.60028 6.83151 9.51237C6.7436 9.42446 6.62437 9.37508 6.50005 9.37508C6.37573 9.37508 6.2565 9.42446 6.16859 9.51237C6.08069 9.60028 6.0313 9.71951 6.0313 9.84383C6.0313 9.96815 6.08069 10.0874 6.16859 10.1753C6.2565 10.2632 6.37573 10.3126 6.50005 10.3126Z" fill="#F44336"/>
</svg>
